<svg width="15" height="16" viewBox="0 0 15 16" fill="none" xmlns="http://www.w3.org/2000/svg">
<path d="M14.7712 11.5776C14.6283 11.4016 14.3883 11.3365 14.1771 11.4123C13.5851 11.6245 12.9429 11.7333 12.2667 11.7333C9.03147 11.7333 6.4 9.1008 6.4 5.86667C6.4 3.92 7.36107 2.10773 8.97067 1.0176C9.15307 0.893867 9.24053 0.670933 9.19147 0.456533C9.1424 0.242133 8.9664 0.08 8.74773 0.048C8.49813 0.0117333 8.2496 0 8 0C3.58827 0 0 3.58827 0 8C0 12.4117 3.58827 16 8 16C10.8 16 13.3472 14.5771 14.8117 12.1941C14.9301 12.0011 14.9131 11.7547 14.7712 11.5776Z" fill="#FFF069"/>
</svg>
